<?xml version="1.0" encoding="UTF-8"?>
<svg version="1.1" xmlns="http://www.w3.org/2000/svg" width="200" height="200">
<path d="M0 0 C0.72445312 0.54011719 1.44890625 1.08023437 2.1953125 1.63671875 C16.73298349 13.31982681 26.2146797 31.2439431 31 49 C31.33644531 50.19302734 31.33644531 50.19302734 31.6796875 51.41015625 C36.79054036 73.49884226 32.4782166 98.46502529 20.89941406 117.84179688 C18.44927651 121.70249266 15.77931953 125.36787632 13 129 C12.49855469 129.67417969 11.99710938 130.34835938 11.48046875 131.04296875 C-1.59466122 147.50934281 -24.05415319 159.12758321 -44.80664062 161.78466797 C-71.31668932 164.38727961 -94.89146229 158.22609201 -116 142 C-116.72445312 141.45988281 -117.44890625 140.91976562 -118.1953125 140.36328125 C-132.73298349 128.68017319 -142.2146797 110.7560569 -147 93 C-147.33644531 91.80697266 -147.33644531 91.80697266 -147.6796875 90.58984375 C-152.79686164 68.4738377 -148.44914825 43.59088939 -136.91552734 24.17431641 C-134.47103694 20.29864545 -131.79329284 16.63379717 -129 13 C-128.45988281 12.27554688 -127.91976562 11.55109375 -127.36328125 10.8046875 C-115.68017319 -3.73298349 -97.7560569 -13.2146797 -80 -18 C-78.80697266 -18.33644531 -78.80697266 -18.33644531 -77.58984375 -18.6796875 C-50.07603008 -25.0457997 -21.91057425 -16.84261594 0 0 Z M-123.65234375 18 C-137.27285002 35.40523929 -143.64945929 57.01778297 -142 79 C-138.90316757 103.14561536 -127.18444462 123.98717289 -108 139 C-88.39936309 152.21629484 -65.75136534 158.06532505 -42.3125 153.8125 C-19.44309755 148.66628325 -0.23246326 136.23205102 12.75 116.5625 C24.8095272 96.67681311 29.09564311 74.34646775 23.9765625 51.59765625 C18.04232024 29.73590776 5.15694967 10.31222745 -14.6875 -1.25 C-51.9800666 -21.96350446 -95.40739845 -14.22878069 -123.65234375 18 Z " fill="#000000" transform="translate(158,29)"/>
<path d="M0 0 C5.99361423 6.41177336 7.25435789 16.39530234 9.375 24.6875 C9.69533203 25.91404297 10.01566406 27.14058594 10.34570312 28.40429688 C12.6875 37.48687367 12.6875 37.48687367 12.6875 40.875 C16.6475 41.205 20.6075 41.535 24.6875 41.875 C25.06883299 43.8664056 25.40075582 45.86779077 25.6875 47.875 C25.3575 48.205 25.0275 48.535 24.6875 48.875 C22.43546119 48.83411103 20.18498979 48.71129626 17.9375 48.5625 C16.82822144 48.49301147 16.82822144 48.49301147 15.6965332 48.42211914 C10.82415538 48.1099558 5.95713327 47.74221907 1.08984375 47.359375 C-24.51084182 45.38697297 -49.52273834 45.61459889 -75.11230469 47.63134766 C-79.61369506 47.97406871 -84.11781243 48.24669948 -88.625 48.5 C-89.94113281 48.57476562 -91.25726563 48.64953125 -92.61328125 48.7265625 C-93.50402344 48.77554688 -94.39476562 48.82453125 -95.3125 48.875 C-96.4375 44.125 -96.4375 44.125 -95.3125 41.875 C-92.58984375 41.4609375 -92.58984375 41.4609375 -89.25 41.25 C-88.14527344 41.17523438 -87.04054688 41.10046875 -85.90234375 41.0234375 C-85.04769531 40.97445312 -84.19304687 40.92546875 -83.3125 40.875 C-83.08175781 39.86824219 -82.85101563 38.86148438 -82.61328125 37.82421875 C-81.7346586 34.01715917 -80.83196486 30.21617452 -79.91992188 26.41699219 C-79.51275833 24.71305858 -79.11046362 23.00795464 -78.71289062 21.30175781 C-78.11704837 18.75930468 -77.4984454 16.22330884 -76.875 13.6875 C-76.69428955 12.89883545 -76.5135791 12.1101709 -76.32739258 11.29760742 C-74.81604333 5.29403149 -72.60720531 1.11254593 -67.328125 -2.47265625 C-59.06782399 -5.14604824 -50.82065042 -2.74417341 -43.00878906 0.18383789 C-35.9809899 2.70884347 -30.62972421 1.12684715 -23.75 -1.125 C-14.69066149 -4.08315135 -8.24701232 -5.2905362 0 0 Z M-67.3125 7.875 C-68.71604915 11.0861172 -68.71604915 11.0861172 -69.55078125 14.7578125 C-69.72127487 15.41329071 -69.89176849 16.06876892 -70.06742859 16.74411011 C-70.60406707 18.82540746 -71.11448387 20.91216009 -71.625 23 C-71.98598497 24.41057831 -72.34859911 25.82074076 -72.71289062 27.23046875 C-74.54132212 33.47925762 -74.54132212 33.47925762 -75.3125 39.875 C-73.62060547 39.76889404 -73.62060547 39.76889404 -71.89453125 39.66064453 C-60.58154883 38.9873614 -49.31056441 38.71760825 -37.97851562 38.74462891 C-35.31374428 38.74999749 -32.64914138 38.74463524 -29.984375 38.73828125 C-18.39732752 38.73429012 -6.876259 39.14978711 4.6875 39.875 C3.59915472 32.41697073 1.80981588 25.19690323 -0.1875 17.9375 C-0.43193848 17.01364502 -0.67637695 16.08979004 -0.92822266 15.13793945 C-2.63859585 8.528242 -2.63859585 8.528242 -7.3125 3.875 C-12.51347467 3.13200362 -16.59425804 4.46781721 -21.43041992 6.16235352 C-30.62761202 9.38421074 -37.03860772 10.81283734 -46.3125 6.875 C-57.39786662 2.66227016 -57.39786662 2.66227016 -67.3125 7.875 Z " fill="#000000" transform="translate(135.3125,53.125)"/>
<path d="M0 0 C4.49927768 2.4972406 7.44271828 5.28910767 9.6875 9.9375 C10.5 12.875 10.5 12.875 10.6875 14.9375 C11.6775 14.6075 12.6675 14.2775 13.6875 13.9375 C15.16873547 13.8568378 16.65332204 13.82988807 18.13671875 13.83984375 C18.98427734 13.84306641 19.83183594 13.84628906 20.70507812 13.84960938 C21.58615234 13.85798828 22.46722656 13.86636719 23.375 13.875 C24.71401367 13.88176758 24.71401367 13.88176758 26.08007812 13.88867188 C28.28261987 13.90045017 30.48502599 13.91689836 32.6875 13.9375 C33.06080444 13.12998291 33.06080444 13.12998291 33.44165039 12.30615234 C36.50760613 5.8896435 39.87232127 2.20598465 46 -1.4375 C53.04540098 -3.07596534 59.31116901 -2.61853074 65.6875 0.9375 C71.61708926 4.77429305 73.80636855 9.17818023 75.6875 15.9375 C76.54011852 23.00205345 74.37042254 28.36361847 70.5625 34.1875 C65.83467423 38.70976813 60.71164753 41.11335424 54.125 41.375 C47.21879588 40.97864394 42.52634854 39.22435893 37.8125 34.0625 C34.66495756 30.1549587 32.6875 27.0553875 32.6875 21.9375 C25.4275 21.9375 18.1675 21.9375 10.6875 21.9375 C10.3575 24.2475 10.0275 26.5575 9.6875 28.9375 C6.36363047 34.26283936 1.75934877 38.39300564 -4.125 40.625 C-10.78443009 41.57634716 -16.35843009 41.15729746 -22.3125 37.9375 C-27.15825913 33.73784209 -31.00216684 29.65641046 -31.55078125 23.08203125 C-31.83761231 10.20482649 -31.83761231 10.20482649 -27.3125 4.9375 C-18.9515829 -1.94441011 -10.23469814 -4.67302834 0 0 Z M-21.625 10.5 C-24.73050967 14.98573619 -24.93751427 18.56600054 -24.3125 23.9375 C-22.09754063 28.82886861 -19.18843913 31.18290918 -14.39453125 33.30859375 C-11.0147579 34.3295009 -8.66365161 33.93043381 -5.3125 32.9375 C-1.00421129 30.61765223 1.85052763 28.52993093 3.6875 23.9375 C4.38539646 19.28485693 4.14410872 15.90551049 2.125 11.625 C-1.49532694 7.63335748 -4.8894213 5.2836541 -10.375 4.5 C-15.25306153 5.2265198 -18.31918331 6.83679772 -21.625 10.5 Z M42.28515625 10.515625 C39.65380065 14.67335413 39.00023273 18.1266291 39.6875 22.9375 C41.8775155 28.3212881 44.16544335 31.03258348 49.5390625 33.33984375 C53.16836442 34.34944956 56.1458532 34.21073666 59.6875 32.9375 C63.44174923 30.69491749 66.03387373 28.00452677 67.6875 23.9375 C68.42805458 19.68643188 68.62870289 15.65936616 66.51953125 11.80078125 C63.03826253 7.53197616 59.8477357 5.44997065 54.375 4.5625 C49.70363915 5.21431779 45.46664035 6.93534762 42.28515625 10.515625 Z " fill="#000000" transform="translate(78.3125,112.0625)"/>
</svg>
